# xmcd
#
# Track frame offsets:
#	150
#	15504
#	28942
#	38450
#	55395
#	70849
#	86669
#	106669
#	121388
#	140428
#	154548
#	166045
#	179037
#	193912
#	216187
#	239411
#
# Disc length: 3449 seconds
#
# Revision: 0
# Processed by: cddbd v1.5.2PL0 Copyright (c) Steve Scherf et al.
# Submitted via: EasyCDDAExtractor 9.1.0.1
#
DISCID=d70d7710
DTITLE=Erich Lindenthaler - Finger Licking Fine
DYEAR=1900
DGENRE=
TTITLE0=Finger Licking Fine
TTITLE1=You Say You Love Me
TTITLE2=Hey John
TTITLE3=Hear the Blues
TTITLE4=BLue Eyed Woman
TTITLE5=Hop on Top
TTITLE6=My Baby Don't Care
TTITLE7=Uptight
TTITLE8=The Honk
TTITLE9=Big Freight Train
TTITLE10=The Everlasting Love
TTITLE11=Miss Lorraine
TTITLE12=Alright Again
TTITLE13=Finger Licking Fine (sax version)
TTITLE14=Shine On
TTITLE15=Fooled Man Blues
EXTD=
EXTT0=
EXTT1=
EXTT2=
EXTT3=
EXTT4=
EXTT5=
EXTT6=
EXTT7=
EXTT8=
EXTT9=
EXTT10=
EXTT11=
EXTT12=
EXTT13=
EXTT14=
EXTT15=
PLAYORDER=
